<svg xmlns="http://www.w3.org/2000/svg" viewBox="0 0 800 500" role="img" aria-label="SRcore architecture diagram">
  <defs>
    <linearGradient id="bg" x1="0" y1="0" x2="1" y2="1">
      <stop offset="0%" stop-color="#0b1020"/>
      <stop offset="100%" stop-color="#141b2f"/>
    </linearGradient>
    <marker id="arr" viewBox="0 0 10 10" refX="10" refY="5" markerWidth="6" markerHeight="6" orient="auto-start-reverse">
      <path d="M 0 0 L 10 5 L 0 10 z" fill="#41d7ff"/>
    </marker>
  </defs>
  <rect width="800" height="500" fill="url(#bg)"/>
  <g font-family="ui-sans-serif, system-ui, sans-serif" font-size="14" fill="#edf2ff">
    <g stroke="#41d7ff" stroke-width="2" fill="none">
      <rect x="40" y="220" width="120" height="60" rx="10"/>
      <rect x="220" y="220" width="120" height="60" rx="10"/>
      <rect x="400" y="220" width="120" height="60" rx="10"/>
      <rect x="600" y="220" width="160" height="60" rx="10"/>
      <rect x="220" y="80" width="120" height="50" rx="10" stroke-dasharray="4 3" stroke="#8ee66f"/>
      <rect x="400" y="80" width="120" height="50" rx="10" stroke-dasharray="4 3" stroke="#8ee66f"/>
      <rect x="220" y="370" width="120" height="50" rx="10" stroke-dasharray="4 3" stroke="#ffae5e"/>
      <rect x="400" y="370" width="120" height="50" rx="10" stroke-dasharray="4 3" stroke="#ffae5e"/>
    </g>
    <text x="100" y="255" text-anchor="middle">User</text>
    <text x="280" y="245" text-anchor="middle">Caddy 2</text>
    <text x="280" y="265" text-anchor="middle" font-size="11" fill="#9aa8c7">SSO + CSP</text>
    <text x="460" y="245" text-anchor="middle">PHP 8.3 API</text>
    <text x="460" y="265" text-anchor="middle" font-size="11" fill="#9aa8c7">api.php</text>
    <text x="680" y="245" text-anchor="middle">MySQL 8</text>
    <text x="680" y="265" text-anchor="middle" font-size="11" fill="#9aa8c7">core_* tables</text>
    <text x="280" y="100" text-anchor="middle" fill="#8ee66f">GitHub webhook</text>
    <text x="280" y="118" text-anchor="middle" font-size="11" fill="#9aa8c7">PR / merge</text>
    <text x="460" y="100" text-anchor="middle" fill="#8ee66f">Telegram bot</text>
    <text x="460" y="118" text-anchor="middle" font-size="11" fill="#9aa8c7">notify / reply</text>
    <text x="280" y="395" text-anchor="middle" fill="#ffae5e">Outbound webhooks</text>
    <text x="280" y="413" text-anchor="middle" font-size="11" fill="#9aa8c7">HMAC signed</text>
    <text x="460" y="395" text-anchor="middle" fill="#ffae5e">Audit log</text>
    <text x="460" y="413" text-anchor="middle" font-size="11" fill="#9aa8c7">1 543 entries</text>
    <g stroke="#41d7ff" stroke-width="1.5" fill="none" marker-end="url(#arr)">
      <line x1="160" y1="250" x2="218" y2="250"/>
      <line x1="340" y1="250" x2="398" y2="250"/>
      <line x1="520" y1="250" x2="598" y2="250"/>
      <line x1="280" y1="130" x2="280" y2="218"/>
      <line x1="460" y1="130" x2="460" y2="218"/>
      <line x1="280" y1="282" x2="280" y2="368"/>
      <line x1="460" y1="282" x2="460" y2="368"/>
    </g>
  </g>
  <text x="400" y="465" text-anchor="middle" font-family="ui-sans-serif, system-ui, sans-serif" font-size="13" fill="#9aa8c7">55 idempotentných SQL migrácií · vanilla JS · žiadny build krok</text>
</svg>
