<svg xmlns="http://www.w3.org/2000/svg" viewBox="0 0 800 500" role="img" aria-label="SRcore funnel: many inputs to one source of truth">
  <defs>
    <linearGradient id="bg" x1="0" y1="0" x2="1" y2="1">
      <stop offset="0%" stop-color="#0b1020"/>
      <stop offset="100%" stop-color="#141b2f"/>
    </linearGradient>
    <marker id="arr4" viewBox="0 0 10 10" refX="10" refY="5" markerWidth="6" markerHeight="6" orient="auto-start-reverse">
      <path d="M 0 0 L 10 5 L 0 10 z" fill="#41d7ff"/>
    </marker>
  </defs>
  <rect width="800" height="500" fill="url(#bg)"/>
  <g font-family="ui-sans-serif, system-ui, sans-serif" font-size="13" fill="#edf2ff">
    <g>
      <rect x="40" y="80" width="140" height="40" rx="20" fill="#1a2547" stroke="#41d7ff" stroke-width="1.5"/>
      <text x="110" y="105" text-anchor="middle">Ľudia</text>
      <rect x="40" y="140" width="140" height="40" rx="20" fill="#1a2547" stroke="#41d7ff" stroke-width="1.5"/>
      <text x="110" y="165" text-anchor="middle">AI agenti</text>
      <rect x="40" y="200" width="140" height="40" rx="20" fill="#1a2547" stroke="#41d7ff" stroke-width="1.5"/>
      <text x="110" y="225" text-anchor="middle">Telegram bot</text>
      <rect x="40" y="260" width="140" height="40" rx="20" fill="#1a2547" stroke="#41d7ff" stroke-width="1.5"/>
      <text x="110" y="285" text-anchor="middle">GitHub webhooks</text>
      <rect x="40" y="320" width="140" height="40" rx="20" fill="#1a2547" stroke="#41d7ff" stroke-width="1.5"/>
      <text x="110" y="345" text-anchor="middle">Cron / events</text>
    </g>

    <polygon points="280,80 520,180 520,320 280,420" fill="#1a2547" stroke="#8ee66f" stroke-width="2"/>
    <text x="400" y="220" text-anchor="middle" font-size="22" font-weight="700" fill="#8ee66f">SRcore</text>
    <text x="400" y="245" text-anchor="middle" font-size="12" fill="#9aa8c7">core_tasks · core_projects</text>
    <text x="400" y="263" text-anchor="middle" font-size="12" fill="#9aa8c7">core_audit_log</text>
    <text x="400" y="281" text-anchor="middle" font-size="12" fill="#9aa8c7">core_task_process_runs</text>

    <g>
      <rect x="600" y="80" width="160" height="40" rx="20" fill="#1a2547" stroke="#ffae5e" stroke-width="1.5"/>
      <text x="680" y="105" text-anchor="middle">Auto deploys</text>
      <rect x="600" y="140" width="160" height="40" rx="20" fill="#1a2547" stroke="#ffae5e" stroke-width="1.5"/>
      <text x="680" y="165" text-anchor="middle">Audit trail</text>
      <rect x="600" y="200" width="160" height="40" rx="20" fill="#1a2547" stroke="#ffae5e" stroke-width="1.5"/>
      <text x="680" y="225" text-anchor="middle">Dashboards</text>
      <rect x="600" y="260" width="160" height="40" rx="20" fill="#1a2547" stroke="#ffae5e" stroke-width="1.5"/>
      <text x="680" y="285" text-anchor="middle">Outbound webhooks</text>
      <rect x="600" y="320" width="160" height="40" rx="20" fill="#1a2547" stroke="#ffae5e" stroke-width="1.5"/>
      <text x="680" y="345" text-anchor="middle">CI / CD gates</text>
    </g>

    <g stroke="#41d7ff" stroke-width="1.2" fill="none" marker-end="url(#arr4)">
      <line x1="180" y1="100" x2="278" y2="170"/>
      <line x1="180" y1="160" x2="278" y2="200"/>
      <line x1="180" y1="220" x2="278" y2="240"/>
      <line x1="180" y1="280" x2="278" y2="280"/>
      <line x1="180" y1="340" x2="278" y2="320"/>
    </g>
    <g stroke="#ffae5e" stroke-width="1.2" fill="none" marker-end="url(#arr4)">
      <line x1="522" y1="200" x2="598" y2="100"/>
      <line x1="522" y1="220" x2="598" y2="160"/>
      <line x1="522" y1="240" x2="598" y2="220"/>
      <line x1="522" y1="280" x2="598" y2="280"/>
      <line x1="522" y1="300" x2="598" y2="340"/>
    </g>
  </g>
  <text x="400" y="460" text-anchor="middle" font-family="ui-sans-serif, system-ui, sans-serif" font-size="13" fill="#9aa8c7">Jeden DB · jeden workflow · jedno miesto na všetko</text>
</svg>
